<?xml version="1.0" encoding="utf-8"?>
<!-- Generator: Adobe Illustrator 22.1.0, SVG Export Plug-In . SVG Version: 6.00 Build 0)  -->
<svg version="1.1" id="Layer_1" xmlns="http://www.w3.org/2000/svg" xmlns:xlink="http://www.w3.org/1999/xlink" x="0px" y="0px"
	 width="31px" height="33px" viewBox="0 0 31 33" style="enable-background:new 0 0 31 33;" xml:space="preserve">
<style type="text/css">
	.st0{fill:#FFF;}
	.st1{fill:#FF0000;}
</style>
<g id="Group_2810" transform="translate(-718.298 -4525.692)">
	<path id="bg" class="st0" d="M731.1,4557.7c-7.8-1.4-13.3-11-12-17.6c0.7-3.3,3.2-5.2,6.3-7.9c3.1-2.4,6.9-5.6,10.8-6.2
		c7.9-0.9,13.4,8.7,12,17.6C746.8,4552.8,739,4559.2,731.1,4557.7z"/>
	<g id="Group_2733" transform="translate(198 4116)">
		<g id="Group_2667" transform="translate(-2078.258 -1490.424)">
			<path id="Path_1694" class="st1" d="M2619.8,1912.5l-0.3-0.9c-0.1-0.3-0.4-0.6-0.8-0.6h-2.6v-0.8c0-0.4-0.3-0.8-0.8-0.8h-2.3
				c-0.4,0-0.8,0.3-0.8,0.8v0.8h-2.6c-0.4,0-0.7,0.2-0.8,0.6l-0.3,0.9c-0.1,0.4,0.1,0.7,0.4,0.9c0.1,0,0.1,0,0.2,0h0.3l0.7,8.7
				c0.1,0.6,0.6,1.1,1.2,1.1h5.5c0.6,0,1.2-0.5,1.2-1.1l0.7-8.7h0.2c0.4,0,0.7-0.3,0.7-0.7
				C2619.9,1912.6,2619.9,1912.6,2619.8,1912.5L2619.8,1912.5z M2613.1,1910.2h2.2v0.8h-2.2L2613.1,1910.2z M2617.5,1922
				c0,0.2-0.2,0.4-0.4,0.4h-5.5c-0.2,0-0.4-0.2-0.4-0.4l-0.7-8.6h7.8L2617.5,1922z M2609.4,1912.6l0.3-0.7c0,0,0,0,0,0h9
				c0,0,0,0,0,0l0.3,0.7H2609.4z"/>
			<path id="Path_1695" class="st1" d="M2616.2,1922L2616.2,1922c0.2,0,0.4-0.2,0.4-0.4l0.4-7.3c0-0.2-0.2-0.4-0.4-0.4
				c-0.2,0-0.4,0.2-0.4,0.4l0,0l-0.4,7.3C2615.8,1921.8,2616,1922,2616.2,1922C2616.2,1922,2616.2,1922,2616.2,1922z"/>
			<path id="Path_1696" class="st1" d="M2611.8,1921.6c0,0.2,0.2,0.4,0.4,0.4h0c0.2,0,0.4-0.2,0.4-0.4c0,0,0,0,0,0l-0.4-7.3
				c0-0.2-0.2-0.4-0.4-0.4c-0.2,0-0.4,0.2-0.4,0.4l0,0L2611.8,1921.6z"/>
			<path id="Path_1697" class="st1" d="M2614.2,1922c0.2,0,0.4-0.2,0.4-0.4v-7.3c0-0.2-0.2-0.4-0.4-0.4s-0.4,0.2-0.4,0.4v7.3
				C2613.8,1921.8,2614,1922,2614.2,1922C2614.2,1922,2614.2,1922,2614.2,1922z"/>
		</g>
	</g>
</g>
</svg>
