<svg version="1.1" id="Layer_1" xmlns="http://www.w3.org/2000/svg" xmlns:xlink="http://www.w3.org/1999/xlink" x="0px" y="0px" width="34px" height="30px" viewBox="0 0 34 30" style="enable-background:new 0 0 0 0;" xml:space="preserve">
                        <style type="text/css">
                           .st0{fill:#FFF;}
                           .st1{fill:#000;}
                        </style>
                        <g id="Group_2808" transform="translate(-940.685 -329.951)">
                           <path id="bg" class="st0" d="M974.2,342.6c0.9,7.8-6.6,15.9-13.3,16.6c-3.3,0.3-5.9-1.5-9.4-3.7c-3.3-2.3-7.4-5-9.1-8.6
                              c-3.1-7.3,4.4-15.3,13.3-16.6C964.9,329,973.3,334.6,974.2,342.6z"></path>
                           <g id="Group_2732" transform="translate(953.414 342)">
                              <g id="Group_2644" transform="translate(0 10.137)">
                                 <path id="Path_1688" class="st1" d="M-1.4-6.6C-2.1-4.8-2.6-3-3-1.2c-0.1,0.3,0.3,0.7,0.6,0.5C-1.8-1-1.2-1.2-0.5-1.3
                                    c0.4-0.1,0.7-0.1,1.1-0.2c0.4-0.1,0.7-0.3,1.1-0.4C1.8-2,2-2,2.2-2.1s0.5,0,0.6-0.2C3-2.6,3-3,2.9-3.3C2.7-4,2.2-4.7,1.5-5.1
                                    l-2.3-1.8C-0.9-7-1.1-7-1.3-6.9c0,0,0,0,0,0c-0.1,0.2,0,0.4,0.2,0.6l2.2,1.8c0.5,0.4,1.4,1,1,1.7l0.2-0.1c-1,0.1-1.8,0.6-2.7,0.8
                                    c-0.9,0.1-1.8,0.3-2.5,0.8l0.6,0.5c0.4-1.8,0.9-3.6,1.6-5.4C-0.5-6.6-1.2-7-1.4-6.6L-1.4-6.6z"></path>
                              </g>
                              <g id="Group_2645" transform="translate(1.476 0)">
                                 <path id="Path_1689" class="st1" d="M-2,3.3c1.9-1.8,3.7-3.6,5.6-5.4l2.8-2.7C6.9-5.2,7.3-5.6,7.8-6C8-6.2,8.2-6.4,8.4-6.5
                                    c0,0,0,0,0.1,0c0,0-0.2,0-0.1,0.1c0.1,0,0.1,0,0.2,0c0.1,0,0.2,0,0.3,0c0.9,0.1,1.2,1.1,1.7,1.8c0.1,0.2,0.2,0.3,0.4,0.5
                                    C11-4.1,11.2-4,11.3-3.8c0.2,0.2,0.2,0.4,0.1,0.6c-0.1,0.3-0.3,0.5-0.4,0.7c-0.7,1-1.5,1.8-2.4,2.5C8.2,0.4,7.7,0.8,7.3,1.2
                                    S6.5,2,6.1,2.4c-0.4,0.5-0.9,1-1.3,1.4s-1,0.8-1.5,1.3C2.9,5.5,2.5,5.9,2.2,6.4C2.1,6.6,1.9,6.8,1.7,7C1.6,7.1,1.6,7.1,1.5,7.2
                                    c0,0-0.1,0.1-0.1,0.1c0,0,0.1-0.1,0.2-0.1C1.3,7.3,1,7.4,0.8,7.5C0.7,7.7,1,7.6,1.1,7.6c0.6-0.2,1.2-0.5,1.6-0.9
                                    C3,6.3,3.4,5.9,3.6,5.5C4,5.1,4.4,4.7,4.9,4.3C5.4,3.9,5.8,3.5,6.2,3c0.8-0.9,1.7-1.8,2.6-2.7c1-0.7,1.9-1.6,2.8-2.5
                                    c0.2-0.2,0.4-0.5,0.5-0.7c0.2-0.2,0.3-0.5,0.4-0.8c0.2-0.5-0.4-0.8-0.7-1.1c-0.6-0.6-0.8-1.6-1.6-2.1c-0.6-0.2-1.2-0.2-1.7,0
                                    C7.9-6.5,7.3-6.2,6.8-5.7c-1,0.9-2,1.9-3,2.8c-2,1.9-4,3.8-6,5.7L-3,3.6c-0.2,0.2,0.2,0.1,0.2,0C-2.4,3.6-2.2,3.5-2,3.3L-2,3.3z"></path>
                              </g>
                              <g id="Group_2646" transform="translate(10.238 1.863)">
                                 <path id="Path_1690" class="st1" d="M-2.5-6c1.5,1,2.3,2.6,3.6,3.8c0,0,0.1,0.1,0.2,0.1s0.1-0.2,0-0.2c0-0.3-0.2-0.5-0.4-0.7
                                    C-0.4-4.3-1.3-5.9-2.8-7C-3-7.1-3-6.8-3-6.7C-2.9-6.4-2.8-6.2-2.5-6L-2.5-6z"></path>
                              </g>
                              <g id="Group_2647" transform="translate(0.852 12.813)">
                                 <path id="Path_1691" class="st1" d="M-3-6.8C-2.5-6-1.7-5.6-1.2-4.8C-1-4.6-0.8-4.5-0.5-4.5c0.2,0,0.4,0,0.3-0.2
                                    c-0.4-0.7-1.3-1.2-1.7-1.9C-2-6.8-2.3-7-2.5-7C-2.6-7-3.1-7-3-6.8L-3-6.8z"></path>
                              </g>
                              <g id="Group_2648" transform="translate(3.745 3.575)">
                                 <path id="Path_1692" class="st1" d="M-2.2,1.6c1-1.2,2.1-2.3,3.2-3.4C1.5-2.3,2-2.9,2.5-3.5C3-4,3.4-4.6,3.9-5.1
                                    c0.5-0.6,1-1,1.7-1.3c0.2-0.1,0.3-0.3,0.2-0.4S5.4-7,5.2-6.9C4-6.3,2.9-5.3,2.2-4.1C1.2-2.9,0-1.8-1.1-0.7
                                    c-0.6,0.6-1.2,1.3-1.8,2C-3,1.4-3,1.6-2.9,1.7c0,0,0.1,0,0.1,0.1C-2.6,1.8-2.4,1.8-2.2,1.6L-2.2,1.6z"></path>
                              </g>
                           </g>
                        </g>
                        </svg>